<?xml version="1.0" encoding="utf-8"?>
<!-- Generator: Adobe Illustrator 21.1.0, SVG Export Plug-In . SVG Version: 6.00 Build 0)  -->
<svg version="1.1" id="_x31_" xmlns="http://www.w3.org/2000/svg" xmlns:xlink="http://www.w3.org/1999/xlink" x="0px" y="0px"
	 viewBox="0 0 100 22.3" style="enable-background:new 0 0 100 22.3;" xml:space="preserve">
<style type="text/css">
	.st0{enable-background:new    ;}
	.st1{fill:#37474F;}
	.st2{fill:#EA524E;}
</style>
<g class="st0">
	<path class="st1" d="M15.6,22.3c-0.4,0-0.8-0.1-1.1-0.3c-0.2-0.2-0.4-0.5-0.4-1V10.8h2.2V20c0,0.1,0,0.3,0.2,0.5
		c0.1,0,0.2,0.1,0.5,0.1h6.4v1.7C23.3,22.3,15.6,22.3,15.6,22.3z"/>
</g>
<g class="st0">
	<path class="st1" d="M26.9,11.9c0.4-1,0.9-1.3,1.9-1.3c1,0,1.5,0.3,1.9,1.3l4.4,10.4h-2.3l-1.2-2.9H26l-1.2,2.9h-2.3L26.9,11.9z
		 M26.6,17.9H31l-1.9-4.7c-0.1-0.2-0.2-0.5-0.3-0.5c-0.2,0-0.3,0.3-0.3,0.5L26.6,17.9z"/>
	<path class="st1" d="M42.9,10.8c0.6,0,1.5,0.1,2.1,0.7c0.6,0.7,0.7,1.7,0.7,2.5c0,0.6,0,1.3-0.5,1.9c-0.3,0.4-0.7,0.6-1.1,0.6v0.1
		c0.5,0,1,0.3,1.3,0.6c0.5,0.6,0.5,1.4,0.5,2.1c0,0.8,0,1.7-0.7,2.4s-1.4,0.7-2.1,0.7h-5.5c-0.6,0-1.1,0.1-1.6-0.5
		c-0.1-0.1-0.4-0.5-0.4-1.2v-8.3c0-0.4,0.1-0.9,0.4-1.2c0.3-0.4,0.9-0.5,1.2-0.5H42.9z M37.7,15.6H42c0.4,0,0.9,0,1.2-0.4
		c0.1-0.1,0.2-0.4,0.2-1.2c0-0.3,0-0.9-0.4-1.2c-0.3-0.3-0.7-0.3-1.1-0.3h-3.6c-0.2,0-0.4,0-0.5,0.1s-0.2,0.4-0.2,0.5L37.7,15.6
		L37.7,15.6z M37.7,19.7c0,0.4,0,0.6,0.1,0.7c0.2,0.2,0.5,0.2,0.7,0.2H42c0.3,0,1,0,1.3-0.4c0.2-0.3,0.3-0.8,0.3-1.2
		c0-0.3,0-0.9-0.2-1.2c-0.1-0.2-0.5-0.5-1.2-0.5h-4.4L37.7,19.7L37.7,19.7z"/>
	<path class="st1" d="M47.2,20.6h6.4c1,0,1.1-0.9,1.1-1.3c0-0.5-0.1-1-1.1-1.3L49,16.6c-0.2,0-0.9-0.3-1.4-0.9
		c-0.5-0.6-0.6-1.5-0.6-2.2c0-0.7,0.1-1.5,0.7-2.1c0.6-0.6,1.3-0.6,1.9-0.6h6.7v1.7h-5.9c-0.3,0-0.6,0-0.9,0.3
		c-0.3,0.3-0.3,0.7-0.3,0.9c0,0.5,0.2,1,1.1,1.3l4.2,1.3c0.8,0.2,1.3,0.5,1.6,0.8c0.7,0.7,0.8,1.7,0.8,2.2c0,0.7-0.1,1.5-0.6,2.1
		c-0.6,0.7-1.3,0.8-2.1,0.8h-7.1V20.6z"/>
	<path class="st1" d="M61.3,11.9c0.4-1,0.9-1.3,1.9-1.3c1,0,1.5,0.3,1.9,1.3l4.4,10.4h-2.3L66,19.4h-5.6l-1.2,2.9h-2.3L61.3,11.9z
		 M61,17.9h4.5l-1.9-4.7c-0.1-0.2-0.2-0.5-0.3-0.5s-0.3,0.3-0.3,0.5L61,17.9z"/>
	<path class="st1" d="M71.4,22.3c-0.4,0-0.8-0.1-1.1-0.3c-0.2-0.2-0.4-0.5-0.4-1V10.8h2.2V20c0,0.1,0,0.3,0.2,0.5
		c0.1,0,0.2,0.1,0.5,0.1h6.4v1.7C79.2,22.3,71.4,22.3,71.4,22.3z"/>
	<path class="st1" d="M81.6,22.3c-0.5,0-1,0-1.3-0.4c-0.4-0.4-0.4-0.9-0.4-1.4v-8.2c0-0.5,0.2-0.9,0.4-1.2c0.4-0.4,1-0.5,1.4-0.5
		h7.4v1.7h-6.3c-0.2,0-0.4,0-0.6,0.2C82,12.8,82,13,82,13.2v2.3h6.9v1.7H82V20c0,0.2,0.1,0.4,0.2,0.5c0.1,0.1,0.4,0.2,0.7,0.2h6.2
		v1.7L81.6,22.3L81.6,22.3z"/>
	<path class="st1" d="M90.3,20.6h6.4c1,0,1.1-0.9,1.1-1.3c0-0.5-0.1-1-1.1-1.3l-4.6-1.4c-0.2,0-0.9-0.3-1.4-0.9
		c-0.5-0.6-0.6-1.5-0.6-2.2c0-0.7,0.1-1.5,0.7-2.1c0.6-0.6,1.3-0.6,1.9-0.6h6.7v1.7h-5.9c-0.3,0-0.6,0-0.9,0.3
		c-0.3,0.3-0.3,0.7-0.3,0.9c0,0.5,0.2,1,1.1,1.3l4.2,1.3c0.8,0.2,1.3,0.5,1.6,0.8c0.7,0.7,0.8,1.7,0.8,2.2c0,0.7-0.1,1.5-0.6,2.1
		c-0.6,0.7-1.3,0.8-2.1,0.8h-7.1L90.3,20.6L90.3,20.6z"/>
</g>
<path class="st1" d="M9.6,10L5.8,0.9C5.7,0.6,5.6,0.3,5.4,0.2C5.3,0.1,5.1,0,4.8,0C4.5,0,4.3,0.1,4.2,0.2C4,0.3,3.9,0.6,3.8,0.9
	L0,10.1v10.6c0,0.6,0.1,1,0.3,1.2s0.6,0.4,1,0.4h6.9c0.5,0,0.8-0.1,1-0.4c0.2-0.3,0.3-0.6,0.3-1.2L9.6,10L9.6,10z M8.7,10v1.6
	c-0.2-0.1-0.3-0.2-0.5-0.2c-0.3,0-0.6,0-0.9,0.2L5.5,9.9c0.1-0.1,0.1-0.3,0.1-0.4c0.1-0.7-0.4-1.3-1.1-1.4C3.9,8,3.2,8.5,3.2,9.1
	c0,0.4,0.1,0.8,0.4,1.1l-0.8,1.7c0,0-0.1,0-0.1,0c-0.2,0-0.4,0-0.6,0.1L1,9.8L4.5,1c0.1-0.2,0.2-0.3,0.3-0.3S5,0.8,5.1,1L8.7,10z"/>
<path class="st2" d="M8.7,13.8v6.9c0,0.3,0,0.4-0.1,0.5c-0.1,0.1-0.3,0.1-0.5,0.1H1.6c-0.2,0-0.4,0-0.5-0.1C1,21.2,0.9,21,0.9,20.7
	v-9.6l0.6,1.2c-0.2,0.2-0.2,0.4-0.3,0.6c-0.1,0.7,0.4,1.3,1.1,1.4C3,14.4,3.6,14,3.7,13.3c0-0.4-0.1-0.8-0.4-1.1l0.8-1.7
	c0,0,0.1,0,0.1,0c0.3,0,0.6,0,0.8-0.2l1.8,1.9c-0.1,0.1-0.1,0.2-0.1,0.4c-0.1,0.7,0.4,1.3,1.1,1.4C8.2,14,8.4,14,8.7,13.8z"/>
</svg>
