<svg width="337" height="66" viewBox="0 0 337 66" fill="none" xmlns="http://www.w3.org/2000/svg">
<path d="M31.8182 33.25V9.97727H45.8636V12.4773H34.6364V20.3409H45.1364V22.8409H34.6364V30.75H46.0455V33.25H31.8182Z" fill="#595858" fill-opacity="0.54"/>
<path d="M75.9618 1L38.8887 59.6289L1.81549 1H75.9618Z" stroke="#B5B5B5" stroke-width="2"/>
<path d="M100.596 31V7.72727H114.641V10.2273H103.414V18.0909H113.914V20.5909H103.414V28.5H114.823V31H100.596ZM139.802 31L131.802 20.3182H128.939V31H126.121V7.72727H128.939V17.8182H130.166L139.484 7.72727H142.848L133.439 17.9545L143.166 31H139.802ZM154.163 31H151.208L159.753 7.72727H162.663L171.208 31H168.253L161.299 11.4091H161.117L154.163 31ZM155.253 21.9091H167.163V24.4091H155.253V21.9091ZM177.242 10.2273V7.72727H194.696V10.2273H187.378V31H184.56V10.2273H177.242ZM205.446 31V7.72727H219.491V10.2273H208.264V18.0909H218.764V20.5909H208.264V28.5H219.673V31H205.446ZM230.971 31V7.72727H238.834C240.66 7.72727 242.152 8.05682 243.311 8.71591C244.478 9.36742 245.342 10.25 245.902 11.3636C246.463 12.4773 246.743 13.7197 246.743 15.0909C246.743 16.4621 246.463 17.7083 245.902 18.8295C245.349 19.9508 244.493 20.8447 243.334 21.5114C242.175 22.1705 240.69 22.5 238.88 22.5H233.243V20H238.789C240.039 20 241.042 19.7841 241.8 19.3523C242.558 18.9205 243.107 18.3371 243.448 17.6023C243.796 16.8598 243.971 16.0227 243.971 15.0909C243.971 14.1591 243.796 13.3258 243.448 12.5909C243.107 11.8561 242.554 11.2803 241.789 10.8636C241.024 10.4394 240.008 10.2273 238.743 10.2273H233.789V31H230.971ZM257.683 7.72727H260.456V26.0455H260.683L273.41 7.72727H276.138V31H273.319V12.7273H273.092L260.41 31H257.683V7.72727ZM288.177 31V7.72727H290.995V18.0909H303.404V7.72727H306.222V31H303.404V20.5909H290.995V31H288.177ZM319.219 31H316.264L324.81 7.72727H327.719L336.264 31H333.31L326.355 11.4091H326.173L319.219 31ZM320.31 21.9091H332.219V24.4091H320.31V21.9091Z" fill="#595858" fill-opacity="0.54"/>
<path d="M97.7773 66V52.6429H99.2022V54.186H99.3772C99.4855 54.0174 99.6355 53.8023 99.8271 53.5409C100.023 53.2753 100.302 53.0392 100.665 52.8326C101.031 52.6218 101.527 52.5164 102.152 52.5164C102.96 52.5164 103.673 52.7209 104.289 53.1298C104.906 53.5388 105.387 54.1186 105.733 54.869C106.079 55.6195 106.251 56.505 106.251 57.5253C106.251 58.5541 106.079 59.4458 105.733 60.2005C105.387 60.951 104.908 61.5329 104.295 61.9461C103.683 62.355 102.977 62.5595 102.177 62.5595C101.56 62.5595 101.067 62.4562 100.696 62.2496C100.325 62.0388 100.04 61.8006 99.8396 61.535C99.6397 61.2651 99.4855 61.0417 99.3772 60.8646H99.2522V66H97.7773ZM99.2272 57.5C99.2272 58.2336 99.3334 58.8808 99.5459 59.4416C99.7584 59.9981 100.069 60.4345 100.477 60.7507C100.885 61.0627 101.385 61.2187 101.977 61.2187C102.594 61.2187 103.108 61.0543 103.521 60.7254C103.937 60.3924 104.25 59.9454 104.458 59.3847C104.67 58.8197 104.777 58.1915 104.777 57.5C104.777 56.817 104.672 56.2014 104.464 55.6533C104.26 55.1009 103.95 54.6646 103.533 54.3441C103.121 54.0195 102.602 53.8571 101.977 53.8571C101.377 53.8571 100.873 54.011 100.465 54.3188C100.056 54.6224 99.748 55.0482 99.5397 55.5964C99.3314 56.1403 99.2272 56.7748 99.2272 57.5Z" fill="#595858" fill-opacity="0.54"/>
<path d="M111.998 62.5595C111.073 62.5595 110.275 62.3529 109.604 61.9397C108.938 61.5223 108.423 60.9405 108.061 60.1942C107.703 59.4437 107.523 58.5709 107.523 57.5759C107.523 56.5809 107.703 55.7039 108.061 54.9449C108.423 54.1818 108.927 53.5873 109.573 53.1615C110.223 52.7314 110.981 52.5164 111.848 52.5164C112.348 52.5164 112.842 52.6007 113.329 52.7693C113.816 52.938 114.26 53.2121 114.66 53.5915C115.06 53.9668 115.379 54.4643 115.616 55.0841C115.854 55.7039 115.973 56.467 115.973 57.3735V58.006H108.573V56.7158H114.473C114.473 56.1677 114.364 55.6786 114.148 55.2485C113.935 54.8185 113.631 54.479 113.235 54.2303C112.844 53.9815 112.381 53.8571 111.848 53.8571C111.26 53.8571 110.752 54.0047 110.323 54.2999C109.898 54.5908 109.571 54.9702 109.342 55.4382C109.113 55.9062 108.998 56.408 108.998 56.9435V57.8036C108.998 58.5372 109.123 59.1591 109.373 59.6693C109.627 60.1752 109.979 60.561 110.429 60.8266C110.879 61.088 111.402 61.2187 111.998 61.2187C112.385 61.2187 112.735 61.1639 113.048 61.0543C113.364 60.9405 113.637 60.7718 113.866 60.5484C114.096 60.3207 114.273 60.0382 114.398 59.7009L115.823 60.1057C115.673 60.5947 115.42 61.0248 115.066 61.3958C114.712 61.7626 114.275 62.0494 113.754 62.256C113.233 62.4583 112.648 62.5595 111.998 62.5595Z" fill="#595858" fill-opacity="0.54"/>
<path d="M122.938 60.3333L126.287 52.6429H127.687L123.538 62.3571H122.338L118.263 52.6429H119.638L122.938 60.3333ZM119.163 52.6429V62.3571H117.688V52.6429H119.163ZM126.712 62.3571V52.6429H128.187V62.3571H126.712Z" fill="#595858" fill-opacity="0.54"/>
<path d="M134.258 62.5595C133.392 62.5595 132.632 62.3508 131.977 61.9334C131.327 61.516 130.819 60.932 130.453 60.1815C130.09 59.4311 129.909 58.5541 129.909 57.5506C129.909 56.5387 130.09 55.6554 130.453 54.9007C130.819 54.146 131.327 53.5599 131.977 53.1425C132.632 52.7251 133.392 52.5164 134.258 52.5164C135.125 52.5164 135.883 52.7251 136.533 53.1425C137.187 53.5599 137.696 54.146 138.058 54.9007C138.425 55.6554 138.608 56.5387 138.608 57.5506C138.608 58.5541 138.425 59.4311 138.058 60.1815C137.696 60.932 137.187 61.516 136.533 61.9334C135.883 62.3508 135.125 62.5595 134.258 62.5595ZM134.258 61.2187C134.917 61.2187 135.458 61.048 135.883 60.7065C136.308 60.365 136.623 59.9159 136.827 59.3594C137.031 58.8028 137.133 58.1999 137.133 57.5506C137.133 56.9013 137.031 56.2963 136.827 55.7355C136.623 55.1747 136.308 54.7215 135.883 54.3757C135.458 54.03 134.917 53.8571 134.258 53.8571C133.6 53.8571 133.059 54.03 132.634 54.3757C132.209 54.7215 131.894 55.1747 131.69 55.7355C131.486 56.2963 131.384 56.9013 131.384 57.5506C131.384 58.1999 131.486 58.8028 131.69 59.3594C131.894 59.9159 132.209 60.365 132.634 60.7065C133.059 61.048 133.6 61.2187 134.258 61.2187Z" fill="#595858" fill-opacity="0.54"/>
<path d="M146.756 56.817V58.2083H141.456V56.817H146.756ZM141.806 52.6429V62.3571H140.331V52.6429H141.806ZM147.881 52.6429V62.3571H146.406V52.6429H147.881Z" fill="#595858" fill-opacity="0.54"/>
<path d="M148.74 54.0342V52.6429H156.539V54.0342H153.39V62.3571H151.915V54.0342H148.74Z" fill="#595858" fill-opacity="0.54"/>
<path d="M164.587 56.817V58.2083H159.288V56.817H164.587ZM159.638 52.6429V62.3571H158.163V52.6429H159.638ZM165.712 52.6429V62.3571H164.237V52.6429H165.712Z" fill="#595858" fill-opacity="0.54"/>
<path d="M171.777 62.5595C170.91 62.5595 170.15 62.3508 169.496 61.9334C168.846 61.516 168.338 60.932 167.971 60.1815C167.609 59.4311 167.428 58.5541 167.428 57.5506C167.428 56.5387 167.609 55.6554 167.971 54.9007C168.338 54.146 168.846 53.5599 169.496 53.1425C170.15 52.7251 170.91 52.5164 171.777 52.5164C172.644 52.5164 173.402 52.7251 174.052 53.1425C174.706 53.5599 175.214 54.146 175.577 54.9007C175.943 55.6554 176.127 56.5387 176.127 57.5506C176.127 58.5541 175.943 59.4311 175.577 60.1815C175.214 60.932 174.706 61.516 174.052 61.9334C173.402 62.3508 172.644 62.5595 171.777 62.5595ZM171.777 61.2187C172.435 61.2187 172.977 61.048 173.402 60.7065C173.827 60.365 174.141 59.9159 174.346 59.3594C174.55 58.8028 174.652 58.1999 174.652 57.5506C174.652 56.9013 174.55 56.2963 174.346 55.7355C174.141 55.1747 173.827 54.7215 173.402 54.3757C172.977 54.03 172.435 53.8571 171.777 53.8571C171.119 53.8571 170.577 54.03 170.152 54.3757C169.727 54.7215 169.413 55.1747 169.209 55.7355C169.004 56.2963 168.902 56.9013 168.902 57.5506C168.902 58.1999 169.004 58.8028 169.209 59.3594C169.413 59.9159 169.727 60.365 170.152 60.7065C170.577 61.048 171.119 61.2187 171.777 61.2187Z" fill="#595858" fill-opacity="0.54"/>
<path d="M183.349 56.1086V57.5H177.75V56.1086H183.349Z" fill="#595858" fill-opacity="0.54"/>
<path d="M190.666 60.3333L194.016 52.6429H195.416L191.266 62.3571H190.066L185.992 52.6429H187.366L190.666 60.3333ZM186.891 52.6429V62.3571H185.417V52.6429H186.891ZM194.441 62.3571V52.6429H195.916V62.3571H194.441Z" fill="#595858" fill-opacity="0.54"/>
<path d="M202.112 62.5595C201.187 62.5595 200.389 62.3529 199.718 61.9397C199.052 61.5223 198.537 60.9405 198.175 60.1942C197.817 59.4437 197.637 58.5709 197.637 57.5759C197.637 56.5809 197.817 55.7039 198.175 54.9449C198.537 54.1818 199.041 53.5873 199.687 53.1615C200.337 52.7314 201.095 52.5164 201.962 52.5164C202.462 52.5164 202.956 52.6007 203.443 52.7693C203.93 52.938 204.374 53.2121 204.774 53.5915C205.174 53.9668 205.493 54.4643 205.73 55.0841C205.968 55.7039 206.087 56.467 206.087 57.3735V58.006H198.687V56.7158H204.587C204.587 56.1677 204.478 55.6786 204.262 55.2485C204.049 54.8185 203.745 54.479 203.349 54.2303C202.958 53.9815 202.495 53.8571 201.962 53.8571C201.374 53.8571 200.866 54.0047 200.437 54.2999C200.012 54.5908 199.685 54.9702 199.456 55.4382C199.227 55.9062 199.112 56.408 199.112 56.9435V57.8036C199.112 58.5372 199.237 59.1591 199.487 59.6693C199.741 60.1752 200.093 60.561 200.543 60.8266C200.993 61.088 201.516 61.2187 202.112 61.2187C202.499 61.2187 202.849 61.1639 203.162 61.0543C203.478 60.9405 203.751 60.7718 203.98 60.5484C204.21 60.3207 204.387 60.0382 204.512 59.7009L205.937 60.1057C205.787 60.5947 205.534 61.0248 205.18 61.3958C204.826 61.7626 204.389 62.0494 203.868 62.256C203.347 62.4583 202.762 62.5595 202.112 62.5595Z" fill="#595858" fill-opacity="0.54"/>
<path d="M214.926 49L215.676 49.9107C215.385 50.1974 215.047 50.3977 214.664 50.5115C214.281 50.6254 213.847 50.6949 213.364 50.7202C212.881 50.7455 212.343 50.7708 211.752 50.7961C211.085 50.8214 210.533 50.9859 210.096 51.2894C209.658 51.593 209.321 52.0315 209.083 52.6049C208.846 53.1783 208.694 53.8824 208.627 54.7173H208.752C209.077 54.1101 209.527 53.6632 210.102 53.3765C210.677 53.0898 211.293 52.9464 211.952 52.9464C212.702 52.9464 213.377 53.1235 213.976 53.4777C214.576 53.8318 215.051 54.3568 215.401 55.0525C215.751 55.7481 215.926 56.6062 215.926 57.6265C215.926 58.6426 215.747 59.5196 215.389 60.2574C215.035 60.9953 214.537 61.5645 213.895 61.965C213.258 62.3614 212.51 62.5595 211.652 62.5595C210.793 62.5595 210.041 62.355 209.396 61.9461C208.75 61.5329 208.248 60.9215 207.89 60.112C207.531 59.2982 207.352 58.2927 207.352 57.0952V56.058C207.352 53.8951 207.715 52.255 208.44 51.1376C209.169 50.0203 210.264 49.4427 211.727 49.4048C212.243 49.3879 212.704 49.3837 213.108 49.3921C213.512 49.4005 213.864 49.3816 214.164 49.3352C214.464 49.2888 214.718 49.1771 214.926 49ZM211.652 61.2187C212.231 61.2187 212.729 61.0712 213.145 60.776C213.566 60.4809 213.889 60.0656 214.114 59.5301C214.339 58.9905 214.451 58.3559 214.451 57.6265C214.451 56.9182 214.337 56.3152 214.108 55.8177C213.883 55.3202 213.56 54.9407 213.139 54.6793C212.718 54.4179 212.214 54.2872 211.627 54.2872C211.198 54.2872 210.812 54.361 210.471 54.5086C210.129 54.6561 209.837 54.8733 209.596 55.16C209.354 55.4467 209.167 55.7966 209.033 56.2098C208.904 56.623 208.835 57.0952 208.827 57.6265C208.827 58.7143 209.079 59.5849 209.583 60.2385C210.087 60.892 210.777 61.2187 211.652 61.2187Z" fill="#595858" fill-opacity="0.54"/>
<path d="M221.679 62.5595C220.754 62.5595 219.956 62.3529 219.285 61.9397C218.619 61.5223 218.104 60.9405 217.742 60.1942C217.384 59.4437 217.204 58.5709 217.204 57.5759C217.204 56.5809 217.384 55.7039 217.742 54.9449C218.104 54.1818 218.608 53.5873 219.254 53.1615C219.904 52.7314 220.662 52.5164 221.529 52.5164C222.029 52.5164 222.523 52.6007 223.01 52.7693C223.498 52.938 223.941 53.2121 224.341 53.5915C224.741 53.9668 225.06 54.4643 225.297 55.0841C225.535 55.7039 225.654 56.467 225.654 57.3735V58.006H218.254V56.7158H224.154C224.154 56.1677 224.045 55.6786 223.829 55.2485C223.616 54.8185 223.312 54.479 222.916 54.2303C222.525 53.9815 222.062 53.8571 221.529 53.8571C220.942 53.8571 220.433 54.0047 220.004 54.2999C219.579 54.5908 219.252 54.9702 219.023 55.4382C218.794 55.9062 218.679 56.408 218.679 56.9435V57.8036C218.679 58.5372 218.804 59.1591 219.054 59.6693C219.308 60.1752 219.66 60.561 220.11 60.8266C220.56 61.088 221.083 61.2187 221.679 61.2187C222.066 61.2187 222.416 61.1639 222.729 61.0543C223.045 60.9405 223.318 60.7718 223.548 60.5484C223.777 60.3207 223.954 60.0382 224.079 59.7009L225.504 60.1057C225.354 60.5947 225.102 61.0248 224.747 61.3958C224.393 61.7626 223.956 62.0494 223.435 62.256C222.914 62.4583 222.329 62.5595 221.679 62.5595Z" fill="#595858" fill-opacity="0.54"/>
<path d="M226.519 62.3571V60.9658H226.869C227.157 60.9658 227.396 60.9089 227.588 60.795C227.78 60.677 227.934 60.4725 228.05 60.1815C228.171 59.8864 228.263 59.4774 228.325 58.9546C228.392 58.4276 228.44 57.7572 228.469 56.9435L228.644 52.6429H235.043V62.3571H233.569V54.0342H230.044L229.894 57.5C229.861 58.2969 229.79 58.9989 229.681 59.606C229.577 60.209 229.417 60.7149 229.2 61.1239C228.988 61.5329 228.704 61.8406 228.35 62.0472C227.996 62.2538 227.552 62.3571 227.019 62.3571H226.519Z" fill="#595858" fill-opacity="0.54"/>
<path d="M238.496 56.1592H241.246C242.371 56.1592 243.231 56.448 243.827 57.0257C244.423 57.6033 244.721 58.3348 244.721 59.2202C244.721 59.8021 244.587 60.3312 244.321 60.8077C244.054 61.2799 243.662 61.6572 243.146 61.9397C242.629 62.218 241.996 62.3571 241.246 62.3571H237.221V52.6429H238.696V60.9658H241.246C241.829 60.9658 242.308 60.8098 242.683 60.4978C243.058 60.1858 243.246 59.7852 243.246 59.2961C243.246 58.7817 243.058 58.3622 242.683 58.0376C242.308 57.7129 241.829 57.5506 241.246 57.5506H238.496V56.1592Z" fill="#595858" fill-opacity="0.54"/>
<path d="M252.862 56.817V58.2083H247.563V56.817H252.862ZM247.913 52.6429V62.3571H246.438V52.6429H247.913ZM253.987 52.6429V62.3571H252.512V52.6429H253.987Z" fill="#595858" fill-opacity="0.54"/>
<path d="M257.427 56.1592H260.177C261.302 56.1592 262.162 56.448 262.758 57.0257C263.354 57.6033 263.652 58.3348 263.652 59.2202C263.652 59.8021 263.519 60.3312 263.252 60.8077C262.985 61.2799 262.594 61.6572 262.077 61.9397C261.56 62.218 260.927 62.3571 260.177 62.3571H256.153V52.6429H257.627V60.9658H260.177C260.76 60.9658 261.24 60.8098 261.615 60.4978C261.989 60.1858 262.177 59.7852 262.177 59.2961C262.177 58.7817 261.989 58.3622 261.615 58.0376C261.24 57.7129 260.76 57.5506 260.177 57.5506H257.427V56.1592ZM265.177 62.3571V52.6429H266.652V62.3571H265.177Z" fill="#595858" fill-opacity="0.54"/>
<path d="M270.298 60.1562L274.923 52.6429H276.623V62.3571H275.148V54.8437L270.548 62.3571H268.823V52.6429H270.298V60.1562ZM273.948 49.4048H275.323C275.323 50.0878 275.089 50.6465 274.623 51.0807C274.156 51.515 273.523 51.7321 272.723 51.7321C271.935 51.7321 271.308 51.515 270.842 51.0807C270.379 50.6465 270.148 50.0878 270.148 49.4048H271.523C271.523 49.7336 271.613 50.0224 271.792 50.2712C271.975 50.52 272.285 50.6443 272.723 50.6443C273.16 50.6443 273.473 50.52 273.66 50.2712C273.852 50.0224 273.948 49.7336 273.948 49.4048Z" fill="#595858" fill-opacity="0.54"/>
<path d="M290.767 52.6429V60.9658H292.117V65.494H290.642V62.3571H283.217V52.6429H284.692V60.9658H289.292V52.6429H290.767Z" fill="#595858" fill-opacity="0.54"/>
<path d="M297.782 62.5595C296.857 62.5595 296.059 62.3529 295.388 61.9397C294.722 61.5223 294.207 60.9405 293.845 60.1942C293.486 59.4437 293.307 58.5709 293.307 57.5759C293.307 56.5809 293.486 55.7039 293.845 54.9449C294.207 54.1818 294.711 53.5873 295.357 53.1615C296.007 52.7314 296.765 52.5164 297.632 52.5164C298.132 52.5164 298.625 52.6007 299.113 52.7693C299.6 52.938 300.044 53.2121 300.444 53.5915C300.844 53.9668 301.163 54.4643 301.4 55.0841C301.638 55.7039 301.756 56.467 301.756 57.3735V58.006H294.357V56.7158H300.256C300.256 56.1677 300.148 55.6786 299.931 55.2485C299.719 54.8185 299.415 54.479 299.019 54.2303C298.627 53.9815 298.165 53.8571 297.632 53.8571C297.044 53.8571 296.536 54.0047 296.107 54.2999C295.682 54.5908 295.355 54.9702 295.126 55.4382C294.897 55.9062 294.782 56.408 294.782 56.9435V57.8036C294.782 58.5372 294.907 59.1591 295.157 59.6693C295.411 60.1752 295.763 60.561 296.213 60.8266C296.663 61.088 297.186 61.2187 297.782 61.2187C298.169 61.2187 298.519 61.1639 298.832 61.0543C299.148 60.9405 299.421 60.7718 299.65 60.5484C299.879 60.3207 300.056 60.0382 300.181 59.7009L301.606 60.1057C301.456 60.5947 301.204 61.0248 300.85 61.3958C300.496 61.7626 300.059 62.0494 299.538 62.256C299.017 62.4583 298.432 62.5595 297.782 62.5595Z" fill="#595858" fill-opacity="0.54"/>
<path d="M309.896 56.817V58.2083H304.597V56.817H309.896ZM304.947 52.6429V62.3571H303.472V52.6429H304.947ZM311.021 52.6429V62.3571H309.546V52.6429H311.021Z" fill="#595858" fill-opacity="0.54"/>
<path d="M311.881 54.0342V52.6429H319.68V54.0342H316.53V62.3571H315.055V54.0342H311.881Z" fill="#595858" fill-opacity="0.54"/>
<path d="M321.303 66V52.6429H322.728V54.186H322.903C323.011 54.0174 323.161 53.8023 323.353 53.5409C323.549 53.2753 323.828 53.0392 324.19 52.8326C324.557 52.6218 325.053 52.5164 325.678 52.5164C326.486 52.5164 327.198 52.7209 327.815 53.1298C328.432 53.5388 328.913 54.1186 329.259 54.869C329.604 55.6195 329.777 56.505 329.777 57.5253C329.777 58.5541 329.604 59.4458 329.259 60.2005C328.913 60.951 328.434 61.5329 327.821 61.9461C327.209 62.355 326.503 62.5595 325.703 62.5595C325.086 62.5595 324.592 62.4562 324.222 62.2496C323.851 62.0388 323.565 61.8006 323.365 61.535C323.165 61.2651 323.011 61.0417 322.903 60.8646H322.778V66H321.303ZM322.753 57.5C322.753 58.2336 322.859 58.8808 323.072 59.4416C323.284 59.9981 323.595 60.4345 324.003 60.7507C324.411 61.0627 324.911 61.2187 325.503 61.2187C326.119 61.2187 326.634 61.0543 327.046 60.7254C327.463 60.3924 327.775 59.9454 327.984 59.3847C328.196 58.8197 328.302 58.1915 328.302 57.5C328.302 56.817 328.198 56.2014 327.99 55.6533C327.786 55.1009 327.475 54.6646 327.059 54.3441C326.646 54.0195 326.128 53.8571 325.503 53.8571C324.903 53.8571 324.399 54.011 323.99 54.3188C323.582 54.6224 323.274 55.0482 323.066 55.5964C322.857 56.1403 322.753 56.7748 322.753 57.5Z" fill="#595858" fill-opacity="0.54"/>
</svg>
