<?xml version="1.0" encoding="utf-8"?>
<!-- Generator: Adobe Illustrator 21.1.0, SVG Export Plug-In . SVG Version: 6.00 Build 0)  -->
<svg version="1.1" id="Capa_1" xmlns="http://www.w3.org/2000/svg" xmlns:xlink="http://www.w3.org/1999/xlink" x="0px" y="0px"
	 viewBox="0 0 512 512" style="enable-background:new 0 0 512 512;" xml:space="preserve">
<style type="text/css">
	.st0{fill:#252525;}
</style>
<g>
	<g>
		<path class="st0" d="M68.1,215.6c-13.5,0-24.5,11-24.5,24.5c0,4.5,3.7,8.2,8.2,8.2s8.2-3.7,8.2-8.2s3.7-8.2,8.2-8.2
			s8.2,3.7,8.2,8.2s-3.7,8.2-8.2,8.2S60,252,60,256.5s3.7,8.2,8.2,8.2c13.5,0,24.5-11,24.5-24.5S81.6,215.6,68.1,215.6z"/>
	</g>
</g>
<g>
	<g>
		<circle class="st0" cx="187.9" cy="117.1" r="8.2"/>
	</g>
</g>
<g>
	<g>
		<circle class="st0" cx="155.2" cy="84.4" r="8.2"/>
	</g>
</g>
<g>
	<g>
		<path class="st0" d="M447.6,172.1l12.3-76.6c4.1-25.3-2.2-49.2-17.7-67.4C426.8,10,404.2,0,378.6,0H133.4
			c-25.6,0-48.2,10-63.7,28.1C54.3,46.3,48,70.2,52.1,95.5l12.3,76.6C28.6,174,0,203.8,0,240.1c0,19.1,7.9,37,21.8,49.9v148.4
			c0,19.7,14.1,36.2,32.7,40v25.3c0,4.5,3.7,8.2,8.2,8.2H128c4.5,0,8.2-3.7,8.2-8.2s-3.7-8.2-8.2-8.2H70.8v-16.3h370.4v16.3H384
			c-4.5,0-8.2,3.7-8.2,8.2s3.7,8.2,8.2,8.2h65.4c4.5,0,8.2-3.7,8.2-8.2v-25.3c18.6-3.8,32.7-20.3,32.7-40V290
			c13.9-12.9,21.8-30.9,21.8-49.9C512,203.8,483.4,174,447.6,172.1z M82.2,38.7c12.3-14.4,30.5-22.4,51.3-22.4h245.1
			c20.7,0,39,8,51.3,22.4s17.3,33.7,14,54.2L431,173.3c-31.3,6.1-55,33.7-55,66.8v18.2c-36.6-20.5-77.8-31.3-120-31.3
			s-83.4,10.8-119.8,31.3v-18.2c0-33.1-23.7-60.7-55-66.8l-13-80.4C64.9,72.4,69.9,53.2,82.2,38.7z M375.8,277.3v65.9H136.2v-65.9
			c36-22.2,77.3-34,119.8-34S339.9,255.1,375.8,277.3z M476.8,280c-1.9,1.6-3,3.9-3,6.3v152.1c0,13.5-11,24.5-24.5,24.5H62.6
			c-13.5,0-24.5-11-24.5-24.5V286.3c0-2.4-1.1-4.7-3-6.3c-12-9.9-18.8-24.4-18.8-39.9c0-28.5,23.2-51.7,51.7-51.7
			s51.7,23.2,51.7,51.7v198.4c0,4.5,3.7,8.2,8.2,8.2s8.2-3.7,8.2-8.2v-79h239.7v79c0,4.5,3.7,8.2,8.2,8.2s8.2-3.7,8.2-8.2V240.1
			c0-28.5,23.2-51.7,51.7-51.7s51.7,23.2,51.7,51.7C495.7,255.6,488.8,270.1,476.8,280z"/>
	</g>
</g>
<g>
	<g>
		<path class="st0" d="M443.9,215.6c-13.5,0-24.5,11-24.5,24.5c0,4.5,3.7,8.2,8.2,8.2s8.2-3.7,8.2-8.2s3.7-8.2,8.2-8.2
			s8.2,3.7,8.2,8.2s-3.7,8.2-8.2,8.2s-8.2,3.7-8.2,8.2s3.7,8.2,8.2,8.2c13.5,0,24.5-11,24.5-24.5S457.4,215.6,443.9,215.6z"/>
	</g>
</g>
<g>
	<g>
		<path class="st0" d="M351.3,375.8H160.7c-4.5,0-8.2,3.7-8.2,8.2s3.7,8.2,8.2,8.2h190.6c4.5,0,8.2-3.7,8.2-8.2
			S355.8,375.8,351.3,375.8z"/>
	</g>
</g>
</svg>
