<?xml version="1.0" encoding="utf-8"?>
<!-- Generator: Adobe Illustrator 21.1.0, SVG Export Plug-In . SVG Version: 6.00 Build 0)  -->
<svg version="1.1" id="Layer_1" xmlns="http://www.w3.org/2000/svg" xmlns:xlink="http://www.w3.org/1999/xlink" x="0px" y="0px"
	 viewBox="0 0 463 463" style="enable-background:new 0 0 463 463;" xml:space="preserve">
<style type="text/css">
	.st0{fill:#252525;}
</style>
<g>
	<g>
		<g>
			<path class="st0" d="M447.5,176H447V95.5c0-17.4-14.1-31.5-31.5-31.5h-384C14.1,64,0,78.1,0,95.5v272C0,384.9,14.1,399,31.5,399
				h384c17.4,0,31.5-14.1,31.5-31.5V287h0.5c8.5,0,15.5-7,15.5-15.5v-80C463,183,456,176,447.5,176z M432,367.5
				c0,9.1-7.4,16.5-16.5,16.5h-384c-9.1,0-16.5-7.4-16.5-16.5V367h16.5c4.1,0,7.5-3.4,7.5-7.5s-3.4-7.5-7.5-7.5H15V111h16.5
				c4.1,0,7.5-3.4,7.5-7.5S35.6,96,31.5,96H15v-0.5C15,86.4,22.4,79,31.5,79h384c9.1,0,16.5,7.4,16.5,16.5V176h-96.5
				c-30.6,0-55.5,24.9-55.5,55.5s24.9,55.5,55.5,55.5H432V367.5z M448,271.5c0,0.3-0.2,0.5-0.5,0.5h-8c0,0,0,0,0,0s0,0,0,0h-104
				c-22.3,0-40.5-18.2-40.5-40.5s18.2-40.5,40.5-40.5h104c0,0,0,0,0,0s0,0,0,0h8c0.3,0,0.5,0.2,0.5,0.5V271.5z"/>
			<path class="st0" d="M335.5,208c-13,0-23.5,10.5-23.5,23.5s10.5,23.5,23.5,23.5s23.5-10.5,23.5-23.5S348.5,208,335.5,208z
				 M335.5,240c-4.7,0-8.5-3.8-8.5-8.5s3.8-8.5,8.5-8.5s8.5,3.8,8.5,8.5S340.2,240,335.5,240z"/>
			<path class="st0" d="M63.5,111h24c4.1,0,7.5-3.4,7.5-7.5S91.6,96,87.5,96h-24c-4.1,0-7.5,3.4-7.5,7.5S59.4,111,63.5,111z"/>
			<path class="st0" d="M119.5,111h24c4.1,0,7.5-3.4,7.5-7.5s-3.4-7.5-7.5-7.5h-24c-4.1,0-7.5,3.4-7.5,7.5S115.4,111,119.5,111z"/>
			<path class="st0" d="M175.5,111h24c4.1,0,7.5-3.4,7.5-7.5s-3.4-7.5-7.5-7.5h-24c-4.1,0-7.5,3.4-7.5,7.5S171.4,111,175.5,111z"/>
			<path class="st0" d="M231.5,111h24c4.1,0,7.5-3.4,7.5-7.5s-3.4-7.5-7.5-7.5h-24c-4.1,0-7.5,3.4-7.5,7.5S227.4,111,231.5,111z"/>
			<path class="st0" d="M287.5,111h24c4.1,0,7.5-3.4,7.5-7.5s-3.4-7.5-7.5-7.5h-24c-4.1,0-7.5,3.4-7.5,7.5S283.4,111,287.5,111z"/>
			<path class="st0" d="M343.5,111h24c4.1,0,7.5-3.4,7.5-7.5s-3.4-7.5-7.5-7.5h-24c-4.1,0-7.5,3.4-7.5,7.5S339.4,111,343.5,111z"/>
			<path class="st0" d="M399.5,111h0.5v0.5c0,4.1,3.4,7.5,7.5,7.5s7.5-3.4,7.5-7.5v-8c0-4.1-3.4-7.5-7.5-7.5h-8
				c-4.1,0-7.5,3.4-7.5,7.5S395.4,111,399.5,111z"/>
			<path class="st0" d="M407.5,136c-4.1,0-7.5,3.4-7.5,7.5v16c0,4.1,3.4,7.5,7.5,7.5s7.5-3.4,7.5-7.5v-16
				C415,139.4,411.6,136,407.5,136z"/>
			<path class="st0" d="M87.5,352h-24c-4.1,0-7.5,3.4-7.5,7.5s3.4,7.5,7.5,7.5h24c4.1,0,7.5-3.4,7.5-7.5S91.6,352,87.5,352z"/>
			<path class="st0" d="M143.5,352h-24c-4.1,0-7.5,3.4-7.5,7.5s3.4,7.5,7.5,7.5h24c4.1,0,7.5-3.4,7.5-7.5S147.6,352,143.5,352z"/>
			<path class="st0" d="M199.5,352h-24c-4.1,0-7.5,3.4-7.5,7.5s3.4,7.5,7.5,7.5h24c4.1,0,7.5-3.4,7.5-7.5S203.6,352,199.5,352z"/>
			<path class="st0" d="M255.5,352h-24c-4.1,0-7.5,3.4-7.5,7.5s3.4,7.5,7.5,7.5h24c4.1,0,7.5-3.4,7.5-7.5S259.6,352,255.5,352z"/>
			<path class="st0" d="M311.5,352h-24c-4.1,0-7.5,3.4-7.5,7.5s3.4,7.5,7.5,7.5h24c4.1,0,7.5-3.4,7.5-7.5S315.6,352,311.5,352z"/>
			<path class="st0" d="M343.5,367h24c4.1,0,7.5-3.4,7.5-7.5s-3.4-7.5-7.5-7.5h-24c-4.1,0-7.5,3.4-7.5,7.5S339.4,367,343.5,367z"/>
			<path class="st0" d="M399.5,367h8c4.1,0,7.5-3.4,7.5-7.5v-8c0-4.1-3.4-7.5-7.5-7.5s-7.5,3.4-7.5,7.5v0.5h-0.5
				c-4.1,0-7.5,3.4-7.5,7.5S395.4,367,399.5,367z"/>
			<path class="st0" d="M407.5,327c4.1,0,7.5-3.4,7.5-7.5v-16c0-4.1-3.4-7.5-7.5-7.5s-7.5,3.4-7.5,7.5v16
				C400,323.6,403.4,327,407.5,327z"/>
		</g>
	</g>
</g>
</svg>
