<?xml version="1.0" encoding="utf-8"?>
<!-- Generator: Adobe Illustrator 21.1.0, SVG Export Plug-In . SVG Version: 6.00 Build 0)  -->
<svg version="1.1" id="Capa_1" xmlns="http://www.w3.org/2000/svg" xmlns:xlink="http://www.w3.org/1999/xlink" x="0px" y="0px"
	 viewBox="0 0 445.5 445.5" style="enable-background:new 0 0 445.5 445.5;" xml:space="preserve">
<style type="text/css">
	.st0{fill:#252525;}
</style>
<g>
	<path class="st0" d="M395.3,60.6h-81.7V21.2C313.6,9.5,304,0,292.4,0H50.3C38.6,0,29.1,9.5,29.1,21.2v342.6
		c0,11.7,9.5,21.2,21.2,21.2H132v39.4c0,11.7,9.5,21.2,21.2,21.2h242.1c11.7,0,21.2-9.5,21.2-21.2V81.8
		C416.4,70.1,406.9,60.6,395.3,60.6z M50.3,366.8c-1.7,0-3-1.4-3-3V21.2c0-1.7,1.4-3,3-3h242.1c1.7,0,3,1.4,3,3v39.4v303.1
		c0,1.7-1.4,3-3,3L50.3,366.8L50.3,366.8z M398.3,424.3c0,1.7-1.4,3-3,3H153.2c-1.7,0-3-1.3-3-3v-38.2h142.2
		c11.7,0,21.2-9.5,21.2-21.2v-1.3v-5.2H357c5,0,9.1-4.1,9.1-9.1s-4.1-9.1-9.1-9.1h-43.4V296H357c5,0,9.1-4.1,9.1-9.1
		s-4.1-9.1-9.1-9.1h-43.4v-45.4H357c5,0,9.1-4.1,9.1-9.1s-4.1-9.1-9.1-9.1h-43.4v-43.6h12.1c5,0,9.1-4.1,9.1-9.1s-4.1-9.1-9.1-9.1
		h-12.1V78.8h81.7c1.7,0,3,1.4,3,3V424.3z M70.9,90.8c0-5,4.1-9.1,9.1-9.1h147.3c5,0,9.1,4.1,9.1,9.1s-4.1,9.1-9.1,9.1H80
		C75,99.9,70.9,95.8,70.9,90.8z M267.6,152.6c0,5-4.1,9.1-9.1,9.1H80c-5,0-9.1-4.1-9.1-9.1s4.1-9.1,9.1-9.1h178.6
		C263.6,143.5,267.6,147.5,267.6,152.6z M267.6,216.1c0,5-4.1,9.1-9.1,9.1H80c-5,0-9.1-4.1-9.1-9.1S75,207,80,207h178.6
		C263.6,207,267.6,211.1,267.6,216.1z M267.6,278.6c0,5-4.1,9.1-9.1,9.1H80c-5,0-9.1-4.1-9.1-9.1s4.1-9.1,9.1-9.1h178.6
		C263.6,269.6,267.6,273.6,267.6,278.6z"/>
</g>
</svg>
