<?xml version="1.0" encoding="utf-8"?>
<!-- Generator: Adobe Illustrator 21.1.0, SVG Export Plug-In . SVG Version: 6.00 Build 0)  -->
<svg version="1.1" id="Layer_1" xmlns="http://www.w3.org/2000/svg" xmlns:xlink="http://www.w3.org/1999/xlink" x="0px" y="0px"
	 viewBox="0 0 512 512" style="enable-background:new 0 0 512 512;" xml:space="preserve">
<style type="text/css">
	.st0{fill:#252525;}
</style>
<g>
	<g>
		<path class="st0" d="M374.9,405.6v-82c0-12.3-10-22.3-22.3-22.3H65c-12.3,0-22.3,10-22.3,22.3v82c-9.2,3.1-15.9,11.9-15.9,22.1
			c0,12.9,10.5,23.4,23.4,23.4h317.2c12.9,0,23.4-10.5,23.4-23.4C390.7,417.5,384.1,408.8,374.9,405.6z M57.7,323.6
			c0-4,3.3-7.3,7.3-7.3h287.6c4,0,7.3,3.3,7.3,7.3v80.8H57.7V323.6z M367.4,436.1H50.2c-4.6,0-8.4-3.8-8.4-8.4s3.8-8.4,8.4-8.4
			h317.2c4.6,0,8.4,3.8,8.4,8.4C375.7,432.4,372,436.1,367.4,436.1z"/>
	</g>
</g>
<g>
	<g>
		<path class="st0" d="M389.7,330.1h-6.5v15h6.5c8.5,0,8.5,2,8.5,4.8v100.2c0,6.8-4.6,14.9-8.5,14.9H27.9c-4.4,0-10.5-8.6-10.5-14.9
			V349.9c0-1.6,0-4.8,10.5-4.8h6.5v-15h-6.5c-6.7,0-12.2,1.2-16.3,3.6c-5.9,3.4-9.2,9.2-9.2,16.3v100.2c0,6.3,2.6,13.5,6.9,19.3
			c5.1,6.8,11.8,10.6,18.6,10.6h6.5v32h15v-32h325.9v32h15v-32c14.8-0.4,23-17.8,23-29.9V349.9C413.2,342.5,410.1,330.1,389.7,330.1
			z"/>
	</g>
</g>
<g>
	<g>
		<rect x="82.3" y="346.1" class="st0" width="16" height="15"/>
	</g>
</g>
<g>
	<g>
		<rect x="319.2" y="346.1" class="st0" width="17" height="15"/>
	</g>
</g>
<g>
	<g>
		<rect x="201.3" y="346.1" class="st0" width="16" height="15"/>
	</g>
</g>
<g>
	<g>
		<path class="st0" d="M3.1,173.6H248V0H3.1V173.6z M18.1,15h215v143.6h-215C18.1,158.6,18.1,15,18.1,15z"/>
	</g>
</g>
<g>
	<g>
		<path class="st0" d="M26.9,23.8v126h197.4v-126C224.3,23.8,26.9,23.8,26.9,23.8z M209.2,134.8H41.8v-96h167.4V134.8L209.2,134.8z"
			/>
	</g>
</g>
<g>
	<g>
		<path class="st0" d="M256.8,174.4v110.1h141.9V174.4H256.8z M383.7,269.6H271.8v-80.2h111.9L383.7,269.6L383.7,269.6z"/>
	</g>
</g>
<g>
	<g>
		<path class="st0" d="M280.6,198.2v62.6h94.3v-62.6L280.6,198.2L280.6,198.2z M359.9,245.8h-64.3v-32.6h64.3L359.9,245.8
			L359.9,245.8z"/>
	</g>
</g>
<g>
	<g>
		<path class="st0" d="M327.7,31.7c-34.7,0-63,28.3-63,63s28.3,63,63,63s63-28.3,63-63S362.5,31.7,327.7,31.7z M335.2,142.1v-8h-15
			v8c-20.2-3.2-36.2-19-39.8-39h8.8v-15h-9.1c2.9-20.9,19.3-37.6,40-40.8v10.8h15V47.3c20.8,3.3,37.2,19.9,40,40.8H365v15h9.8
			C371.4,123.2,355.4,139,335.2,142.1z"/>
	</g>
</g>
<g>
	<g>
		<polygon class="st0" points="320.2,70.1 320.2,88.1 295.2,88.1 295.2,103.1 335.2,103.1 335.2,70.1 		"/>
	</g>
</g>
<g>
	<g>
		<path class="st0" d="M470.2,472.8L470.2,472.8V296.1h-15v176.7h-39.8v38.8h94.3v-38.8H470.2L470.2,472.8z M494.7,496.5h-64.3v-8.8
			h64.3V496.5z"/>
	</g>
</g>
<g>
	<g>
		<path class="st0" d="M431.2,103.1v173.6h23.9v12.4h15v-12.4h23.6V103.1H431.2z M478.8,238.1h-23.6v15h23.6v8.6h-32.6V118.1h32.6
			V238.1L478.8,238.1z"/>
	</g>
</g>
<g>
	<g>
		
			<rect x="94.5" y="63.4" transform="matrix(0.7071 -0.7071 0.7071 0.7071 -19.1931 95.4964)" class="st0" width="22.4" height="15"/>
	</g>
</g>
<g>
	<g>
		
			<rect x="86.3" y="75.3" transform="matrix(0.7071 -0.7071 0.7071 0.7071 -21.7789 113.01)" class="st0" width="78.5" height="15"/>
	</g>
</g>
<g>
	<g>
		
			<rect x="134.1" y="95.2" transform="matrix(0.7071 -0.7071 0.7071 0.7071 -30.0645 132.8629)" class="st0" width="22.4" height="15"/>
	</g>
</g>
</svg>
